<mxfile host="app.diagrams.net" modified="2024-04-23T08:29:53.007Z" agent="Mozilla/5.0 (Windows NT 10.0; Win64; x64) AppleWebKit/537.36 (KHTML, like Gecko) Chrome/124.0.0.0 Safari/537.36" etag="deE3Q3-GzzCDnpcfOJgi" version="24.1.0" type="device" pages="2">
  <diagram name="Default Recommendation Process" id="JeU-Ca0oEgL8NBKCTd9W">
    <mxGraphModel dx="1183" dy="638" grid="1" gridSize="10" guides="1" tooltips="1" connect="1" arrows="1" fold="1" page="1" pageScale="1" pageWidth="827" pageHeight="1169" math="0" shadow="0">
      <root>
        <mxCell id="0" />
        <mxCell id="1" parent="0" />
        <mxCell id="27wquKJJOmfppvdsKl8G-1" value="" style="rounded=0;whiteSpace=wrap;html=1;fillColor=none;movable=0;resizable=0;rotatable=0;deletable=0;editable=0;locked=1;connectable=0;perimeterSpacing=0;" parent="1" vertex="1">
          <mxGeometry x="150" width="577" height="1169" as="geometry" />
        </mxCell>
        <mxCell id="27wquKJJOmfppvdsKl8G-3" value="" style="shape=umlLifeline;perimeter=lifelinePerimeter;whiteSpace=wrap;html=1;container=1;dropTarget=0;collapsible=0;recursiveResize=0;outlineConnect=0;portConstraint=eastwest;newEdgeStyle={&quot;curved&quot;:0,&quot;rounded&quot;:0};participant=umlActor;" parent="1" vertex="1">
          <mxGeometry x="170" y="20" width="20" height="380" as="geometry" />
        </mxCell>
        <mxCell id="27wquKJJOmfppvdsKl8G-5" value="Guest" style="text;html=1;align=center;verticalAlign=middle;whiteSpace=wrap;rounded=0;fontFamily=Times New Roman;spacing=0;fontSize=10;fillColor=default;" parent="1" vertex="1">
          <mxGeometry x="170" y="60" width="20" height="10" as="geometry" />
        </mxCell>
        <mxCell id="27wquKJJOmfppvdsKl8G-6" value="ApplicationView" style="shape=umlLifeline;perimeter=lifelinePerimeter;whiteSpace=wrap;html=1;container=1;dropTarget=0;collapsible=0;recursiveResize=0;outlineConnect=0;portConstraint=eastwest;newEdgeStyle={&quot;curved&quot;:0,&quot;rounded&quot;:0};fontFamily=Times New Roman;" parent="1" vertex="1">
          <mxGeometry x="230" y="20" width="105" height="380" as="geometry" />
        </mxCell>
        <mxCell id="27wquKJJOmfppvdsKl8G-10" value="" style="html=1;points=[[0,0,0,0,5],[0,1,0,0,-5],[1,0,0,0,5],[1,1,0,0,-5]];perimeter=orthogonalPerimeter;outlineConnect=0;targetShapes=umlLifeline;portConstraint=eastwest;newEdgeStyle={&quot;curved&quot;:0,&quot;rounded&quot;:0};strokeColor=default;align=center;verticalAlign=middle;fontFamily=Times New Roman;fontSize=12;fontColor=default;fillColor=default;" parent="27wquKJJOmfppvdsKl8G-6" vertex="1">
          <mxGeometry x="47" y="60" width="10" height="320" as="geometry" />
        </mxCell>
        <mxCell id="27wquKJJOmfppvdsKl8G-15" value="render&lt;br style=&quot;font-size: 9px;&quot;&gt;skeleton&lt;br style=&quot;font-size: 9px;&quot;&gt;page" style="html=1;align=left;spacingLeft=2;endArrow=block;rounded=0;edgeStyle=orthogonalEdgeStyle;curved=0;rounded=0;fontFamily=Times New Roman;fontSize=9;fontColor=default;" parent="27wquKJJOmfppvdsKl8G-6" edge="1">
          <mxGeometry x="-0.1429" relative="1" as="geometry">
            <mxPoint x="57" y="70" as="sourcePoint" />
            <Array as="points">
              <mxPoint x="87" y="70" />
              <mxPoint x="87" y="80" />
              <mxPoint x="62" y="80" />
            </Array>
            <mxPoint x="57" y="80" as="targetPoint" />
            <mxPoint as="offset" />
          </mxGeometry>
        </mxCell>
        <mxCell id="27wquKJJOmfppvdsKl8G-12" value="&lt;font style=&quot;font-size: 10px;&quot;&gt;Launch&lt;/font&gt;" style="html=1;verticalAlign=bottom;startArrow=oval;startFill=1;endArrow=block;startSize=8;curved=0;rounded=0;fontFamily=Times New Roman;fontSize=10;fontColor=default;entryX=0;entryY=0;entryDx=0;entryDy=5;entryPerimeter=0;" parent="1" source="27wquKJJOmfppvdsKl8G-3" target="27wquKJJOmfppvdsKl8G-10" edge="1">
          <mxGeometry x="-0.001" width="60" relative="1" as="geometry">
            <mxPoint x="180" y="90" as="sourcePoint" />
            <mxPoint x="240" y="90" as="targetPoint" />
            <mxPoint as="offset" />
          </mxGeometry>
        </mxCell>
        <mxCell id="27wquKJJOmfppvdsKl8G-16" value=":HomeController" style="shape=umlLifeline;perimeter=lifelinePerimeter;whiteSpace=wrap;html=1;container=1;dropTarget=0;collapsible=0;recursiveResize=0;outlineConnect=0;portConstraint=eastwest;newEdgeStyle={&quot;curved&quot;:0,&quot;rounded&quot;:0};fontFamily=Times New Roman;" parent="1" vertex="1">
          <mxGeometry x="361" y="20" width="105" height="380" as="geometry" />
        </mxCell>
        <mxCell id="27wquKJJOmfppvdsKl8G-17" value="" style="html=1;points=[[0,0,0,0,5],[0,1,0,0,-5],[1,0,0,0,5],[1,1,0,0,-5]];perimeter=orthogonalPerimeter;outlineConnect=0;targetShapes=umlLifeline;portConstraint=eastwest;newEdgeStyle={&quot;curved&quot;:0,&quot;rounded&quot;:0};strokeColor=default;align=center;verticalAlign=middle;fontFamily=Times New Roman;fontSize=12;fontColor=default;fillColor=default;" parent="27wquKJJOmfppvdsKl8G-16" vertex="1">
          <mxGeometry x="47" y="90" width="10" height="290" as="geometry" />
        </mxCell>
        <mxCell id="27wquKJJOmfppvdsKl8G-20" value="fetch_recommendations()" style="html=1;verticalAlign=bottom;endArrow=block;curved=0;rounded=0;strokeColor=default;align=center;fontFamily=Times New Roman;fontSize=10;fontColor=default;labelBackgroundColor=none;startSize=8;" parent="1" source="27wquKJJOmfppvdsKl8G-10" edge="1">
          <mxGeometry width="80" relative="1" as="geometry">
            <mxPoint x="290" y="130" as="sourcePoint" />
            <mxPoint x="408" y="130" as="targetPoint" />
            <mxPoint as="offset" />
          </mxGeometry>
        </mxCell>
        <mxCell id="27wquKJJOmfppvdsKl8G-21" value=":Recommendation&lt;br&gt;Engine" style="shape=umlLifeline;perimeter=lifelinePerimeter;whiteSpace=wrap;html=1;container=1;dropTarget=0;collapsible=0;recursiveResize=0;outlineConnect=0;portConstraint=eastwest;newEdgeStyle={&quot;curved&quot;:0,&quot;rounded&quot;:0};fontFamily=Times New Roman;" parent="1" vertex="1">
          <mxGeometry x="490" y="20" width="105" height="380" as="geometry" />
        </mxCell>
        <mxCell id="27wquKJJOmfppvdsKl8G-22" value="" style="html=1;points=[[0,0,0,0,5],[0,1,0,0,-5],[1,0,0,0,5],[1,1,0,0,-5]];perimeter=orthogonalPerimeter;outlineConnect=0;targetShapes=umlLifeline;portConstraint=eastwest;newEdgeStyle={&quot;curved&quot;:0,&quot;rounded&quot;:0};strokeColor=default;align=center;verticalAlign=middle;fontFamily=Times New Roman;fontSize=12;fontColor=default;fillColor=default;" parent="27wquKJJOmfppvdsKl8G-21" vertex="1">
          <mxGeometry x="47" y="40" width="10" height="340" as="geometry" />
        </mxCell>
        <mxCell id="27wquKJJOmfppvdsKl8G-23" value="generate_recommendations()" style="html=1;verticalAlign=bottom;endArrow=block;curved=0;rounded=0;strokeColor=default;align=center;fontFamily=Times New Roman;fontSize=10;fontColor=default;labelBackgroundColor=none;startSize=8;" parent="1" edge="1">
          <mxGeometry width="80" relative="1" as="geometry">
            <mxPoint x="418" y="137" as="sourcePoint" />
            <mxPoint x="537" y="137" as="targetPoint" />
            <mxPoint as="offset" />
          </mxGeometry>
        </mxCell>
        <mxCell id="27wquKJJOmfppvdsKl8G-24" value=":ModelKNN" style="shape=umlLifeline;perimeter=lifelinePerimeter;whiteSpace=wrap;html=1;container=1;dropTarget=0;collapsible=0;recursiveResize=0;outlineConnect=0;portConstraint=eastwest;newEdgeStyle={&quot;curved&quot;:0,&quot;rounded&quot;:0};fontFamily=Times New Roman;" parent="1" vertex="1">
          <mxGeometry x="610" y="120" width="105" height="90" as="geometry" />
        </mxCell>
        <mxCell id="27wquKJJOmfppvdsKl8G-25" value="" style="html=1;points=[[0,0,0,0,5],[0,1,0,0,-5],[1,0,0,0,5],[1,1,0,0,-5]];perimeter=orthogonalPerimeter;outlineConnect=0;targetShapes=umlLifeline;portConstraint=eastwest;newEdgeStyle={&quot;curved&quot;:0,&quot;rounded&quot;:0};strokeColor=default;align=center;verticalAlign=middle;fontFamily=Times New Roman;fontSize=12;fontColor=default;fillColor=default;" parent="27wquKJJOmfppvdsKl8G-24" vertex="1">
          <mxGeometry x="47.5" y="40" width="10" height="30" as="geometry" />
        </mxCell>
        <mxCell id="27wquKJJOmfppvdsKl8G-26" value="&amp;lt;&amp;lt;loads&amp;gt;&amp;gt;" style="html=1;verticalAlign=bottom;endArrow=block;curved=0;rounded=0;strokeColor=default;align=center;fontFamily=Times New Roman;fontSize=10;fontColor=default;labelBackgroundColor=none;startSize=8;" parent="1" source="27wquKJJOmfppvdsKl8G-22" edge="1">
          <mxGeometry width="80" relative="1" as="geometry">
            <mxPoint x="550" y="140" as="sourcePoint" />
            <mxPoint x="610" y="140" as="targetPoint" />
            <mxPoint as="offset" />
          </mxGeometry>
        </mxCell>
        <mxCell id="27wquKJJOmfppvdsKl8G-27" value="" style="shape=umlDestroy;whiteSpace=wrap;html=1;strokeWidth=2;targetShapes=umlLifeline;strokeColor=default;align=center;verticalAlign=middle;fontFamily=Times New Roman;fontSize=10;fontColor=default;labelBackgroundColor=default;fillColor=default;" parent="1" vertex="1">
          <mxGeometry x="658" y="204" width="10" height="10" as="geometry" />
        </mxCell>
        <mxCell id="27wquKJJOmfppvdsKl8G-28" value="prediction_set" style="html=1;verticalAlign=bottom;endArrow=open;dashed=1;endSize=8;curved=0;rounded=0;strokeColor=default;align=center;fontFamily=Times New Roman;fontSize=10;fontColor=default;labelBackgroundColor=default;" parent="1" target="27wquKJJOmfppvdsKl8G-22" edge="1">
          <mxGeometry relative="1" as="geometry">
            <mxPoint x="660" y="190" as="sourcePoint" />
            <mxPoint x="580" y="190" as="targetPoint" />
          </mxGeometry>
        </mxCell>
        <mxCell id="27wquKJJOmfppvdsKl8G-31" value="rank_and_merge_unique()" style="html=1;align=left;spacingLeft=2;endArrow=block;rounded=0;edgeStyle=orthogonalEdgeStyle;curved=0;rounded=0;fontFamily=Times New Roman;fontSize=9;fontColor=default;" parent="1" edge="1">
          <mxGeometry y="1" relative="1" as="geometry">
            <mxPoint x="547" y="250" as="sourcePoint" />
            <Array as="points">
              <mxPoint x="577" y="250" />
              <mxPoint x="577" y="260" />
              <mxPoint x="552" y="260" />
            </Array>
            <mxPoint x="547" y="260" as="targetPoint" />
            <mxPoint as="offset" />
          </mxGeometry>
        </mxCell>
        <mxCell id="27wquKJJOmfppvdsKl8G-32" value="success message" style="html=1;verticalAlign=bottom;endArrow=open;dashed=1;endSize=8;curved=0;rounded=0;strokeColor=default;align=center;fontFamily=Times New Roman;fontSize=10;fontColor=default;labelBackgroundColor=none;" parent="1" edge="1">
          <mxGeometry relative="1" as="geometry">
            <mxPoint x="537" y="270" as="sourcePoint" />
            <mxPoint x="420" y="270" as="targetPoint" />
          </mxGeometry>
        </mxCell>
        <mxCell id="27wquKJJOmfppvdsKl8G-33" value="get_recommendations_json()" style="html=1;verticalAlign=bottom;endArrow=block;curved=0;rounded=0;strokeColor=default;align=center;fontFamily=Times New Roman;fontSize=10;fontColor=default;labelBackgroundColor=none;startSize=8;" parent="1" edge="1">
          <mxGeometry width="80" relative="1" as="geometry">
            <mxPoint x="418" y="297" as="sourcePoint" />
            <mxPoint x="537" y="297" as="targetPoint" />
            <mxPoint as="offset" />
          </mxGeometry>
        </mxCell>
        <mxCell id="27wquKJJOmfppvdsKl8G-34" value="JSON of results" style="html=1;verticalAlign=bottom;endArrow=open;dashed=1;endSize=8;curved=0;rounded=0;strokeColor=default;align=center;fontFamily=Times New Roman;fontSize=10;fontColor=default;labelBackgroundColor=none;" parent="1" edge="1">
          <mxGeometry relative="1" as="geometry">
            <mxPoint x="537" y="330" as="sourcePoint" />
            <mxPoint x="420" y="330" as="targetPoint" />
          </mxGeometry>
        </mxCell>
        <mxCell id="27wquKJJOmfppvdsKl8G-35" value="JSON of results" style="html=1;verticalAlign=bottom;endArrow=open;dashed=1;endSize=8;curved=0;rounded=0;strokeColor=default;align=center;fontFamily=Times New Roman;fontSize=10;fontColor=default;labelBackgroundColor=none;" parent="1" edge="1">
          <mxGeometry relative="1" as="geometry">
            <mxPoint x="407" y="340" as="sourcePoint" />
            <mxPoint x="287" y="340" as="targetPoint" />
          </mxGeometry>
        </mxCell>
        <mxCell id="27wquKJJOmfppvdsKl8G-36" value="re-renders&lt;div&gt;with JSON result&lt;/div&gt;" style="html=1;align=left;spacingLeft=2;endArrow=block;rounded=0;edgeStyle=orthogonalEdgeStyle;curved=0;rounded=0;fontFamily=Times New Roman;fontSize=9;fontColor=default;" parent="1" edge="1">
          <mxGeometry relative="1" as="geometry">
            <mxPoint x="287" y="360" as="sourcePoint" />
            <Array as="points">
              <mxPoint x="317" y="360" />
              <mxPoint x="317" y="370" />
              <mxPoint x="292" y="370" />
            </Array>
            <mxPoint x="287" y="370" as="targetPoint" />
            <mxPoint as="offset" />
          </mxGeometry>
        </mxCell>
      </root>
    </mxGraphModel>
  </diagram>
  <diagram id="A7hWZu-u1d76H6rMCgVu" name="User Recommendation Process">
    <mxGraphModel dx="1183" dy="638" grid="1" gridSize="10" guides="1" tooltips="1" connect="1" arrows="1" fold="1" page="1" pageScale="1" pageWidth="827" pageHeight="1169" math="0" shadow="0">
      <root>
        <mxCell id="0" />
        <mxCell id="1" parent="0" />
        <mxCell id="NYK6uS1K47BaD9W_qknn-1" value="" style="rounded=0;whiteSpace=wrap;html=1;fillColor=none;movable=0;resizable=0;rotatable=0;deletable=0;editable=0;locked=1;connectable=0;perimeterSpacing=0;" vertex="1" parent="1">
          <mxGeometry x="150" width="577" height="1169" as="geometry" />
        </mxCell>
        <mxCell id="NYK6uS1K47BaD9W_qknn-2" value="" style="shape=umlLifeline;perimeter=lifelinePerimeter;whiteSpace=wrap;html=1;container=1;dropTarget=0;collapsible=0;recursiveResize=0;outlineConnect=0;portConstraint=eastwest;newEdgeStyle={&quot;curved&quot;:0,&quot;rounded&quot;:0};participant=umlActor;" vertex="1" parent="1">
          <mxGeometry x="170" y="20" width="20" height="450" as="geometry" />
        </mxCell>
        <mxCell id="NYK6uS1K47BaD9W_qknn-3" value="User" style="text;html=1;align=center;verticalAlign=middle;whiteSpace=wrap;rounded=0;fontFamily=Times New Roman;spacing=0;fontSize=10;fillColor=default;" vertex="1" parent="1">
          <mxGeometry x="170" y="60" width="20" height="10" as="geometry" />
        </mxCell>
        <mxCell id="NYK6uS1K47BaD9W_qknn-4" value="ApplicationView" style="shape=umlLifeline;perimeter=lifelinePerimeter;whiteSpace=wrap;html=1;container=1;dropTarget=0;collapsible=0;recursiveResize=0;outlineConnect=0;portConstraint=eastwest;newEdgeStyle={&quot;curved&quot;:0,&quot;rounded&quot;:0};fontFamily=Times New Roman;" vertex="1" parent="1">
          <mxGeometry x="230" y="20" width="105" height="450" as="geometry" />
        </mxCell>
        <mxCell id="NYK6uS1K47BaD9W_qknn-5" value="" style="html=1;points=[[0,0,0,0,5],[0,1,0,0,-5],[1,0,0,0,5],[1,1,0,0,-5]];perimeter=orthogonalPerimeter;outlineConnect=0;targetShapes=umlLifeline;portConstraint=eastwest;newEdgeStyle={&quot;curved&quot;:0,&quot;rounded&quot;:0};strokeColor=default;align=center;verticalAlign=middle;fontFamily=Times New Roman;fontSize=12;fontColor=default;fillColor=default;" vertex="1" parent="NYK6uS1K47BaD9W_qknn-4">
          <mxGeometry x="47" y="60" width="10" height="390" as="geometry" />
        </mxCell>
        <mxCell id="NYK6uS1K47BaD9W_qknn-6" value="render&lt;br style=&quot;font-size: 9px;&quot;&gt;skeleton&lt;br style=&quot;font-size: 9px;&quot;&gt;page" style="html=1;align=left;spacingLeft=2;endArrow=block;rounded=0;edgeStyle=orthogonalEdgeStyle;curved=0;rounded=0;fontFamily=Times New Roman;fontSize=9;fontColor=default;" edge="1" parent="NYK6uS1K47BaD9W_qknn-4">
          <mxGeometry x="-0.1429" relative="1" as="geometry">
            <mxPoint x="57" y="70" as="sourcePoint" />
            <Array as="points">
              <mxPoint x="87" y="70" />
              <mxPoint x="87" y="80" />
              <mxPoint x="62" y="80" />
            </Array>
            <mxPoint x="57" y="80" as="targetPoint" />
            <mxPoint as="offset" />
          </mxGeometry>
        </mxCell>
        <mxCell id="NYK6uS1K47BaD9W_qknn-7" value="&lt;font style=&quot;font-size: 10px;&quot;&gt;Launch&lt;/font&gt;" style="html=1;verticalAlign=bottom;startArrow=oval;startFill=1;endArrow=block;startSize=8;curved=0;rounded=0;fontFamily=Times New Roman;fontSize=10;fontColor=default;entryX=0;entryY=0;entryDx=0;entryDy=5;entryPerimeter=0;" edge="1" parent="1" source="NYK6uS1K47BaD9W_qknn-2" target="NYK6uS1K47BaD9W_qknn-5">
          <mxGeometry x="-0.001" width="60" relative="1" as="geometry">
            <mxPoint x="180" y="90" as="sourcePoint" />
            <mxPoint x="240" y="90" as="targetPoint" />
            <mxPoint as="offset" />
          </mxGeometry>
        </mxCell>
        <mxCell id="NYK6uS1K47BaD9W_qknn-8" value=":HomeController" style="shape=umlLifeline;perimeter=lifelinePerimeter;whiteSpace=wrap;html=1;container=1;dropTarget=0;collapsible=0;recursiveResize=0;outlineConnect=0;portConstraint=eastwest;newEdgeStyle={&quot;curved&quot;:0,&quot;rounded&quot;:0};fontFamily=Times New Roman;" vertex="1" parent="1">
          <mxGeometry x="361" y="20" width="105" height="450" as="geometry" />
        </mxCell>
        <mxCell id="NYK6uS1K47BaD9W_qknn-9" value="" style="html=1;points=[[0,0,0,0,5],[0,1,0,0,-5],[1,0,0,0,5],[1,1,0,0,-5]];perimeter=orthogonalPerimeter;outlineConnect=0;targetShapes=umlLifeline;portConstraint=eastwest;newEdgeStyle={&quot;curved&quot;:0,&quot;rounded&quot;:0};strokeColor=default;align=center;verticalAlign=middle;fontFamily=Times New Roman;fontSize=12;fontColor=default;fillColor=default;" vertex="1" parent="NYK6uS1K47BaD9W_qknn-8">
          <mxGeometry x="47" y="90" width="10" height="360" as="geometry" />
        </mxCell>
        <mxCell id="NYK6uS1K47BaD9W_qknn-10" value="fetch_recommendations()" style="html=1;verticalAlign=bottom;endArrow=block;curved=0;rounded=0;strokeColor=default;align=center;fontFamily=Times New Roman;fontSize=10;fontColor=default;labelBackgroundColor=none;startSize=8;" edge="1" parent="1" source="NYK6uS1K47BaD9W_qknn-5">
          <mxGeometry width="80" relative="1" as="geometry">
            <mxPoint x="290" y="130" as="sourcePoint" />
            <mxPoint x="408" y="130" as="targetPoint" />
            <mxPoint as="offset" />
          </mxGeometry>
        </mxCell>
        <mxCell id="NYK6uS1K47BaD9W_qknn-11" value=":Recommendation&lt;br&gt;Engine" style="shape=umlLifeline;perimeter=lifelinePerimeter;whiteSpace=wrap;html=1;container=1;dropTarget=0;collapsible=0;recursiveResize=0;outlineConnect=0;portConstraint=eastwest;newEdgeStyle={&quot;curved&quot;:0,&quot;rounded&quot;:0};fontFamily=Times New Roman;" vertex="1" parent="1">
          <mxGeometry x="600" y="20" width="105" height="450" as="geometry" />
        </mxCell>
        <mxCell id="NYK6uS1K47BaD9W_qknn-12" value="" style="html=1;points=[[0,0,0,0,5],[0,1,0,0,-5],[1,0,0,0,5],[1,1,0,0,-5]];perimeter=orthogonalPerimeter;outlineConnect=0;targetShapes=umlLifeline;portConstraint=eastwest;newEdgeStyle={&quot;curved&quot;:0,&quot;rounded&quot;:0};strokeColor=default;align=center;verticalAlign=middle;fontFamily=Times New Roman;fontSize=12;fontColor=default;fillColor=default;" vertex="1" parent="NYK6uS1K47BaD9W_qknn-11">
          <mxGeometry x="47" y="40" width="10" height="410" as="geometry" />
        </mxCell>
        <mxCell id="NYK6uS1K47BaD9W_qknn-21" value="rank_and&lt;div&gt;_merge&lt;/div&gt;&lt;div&gt;_unique()&lt;/div&gt;" style="html=1;align=left;spacingLeft=2;endArrow=block;rounded=0;edgeStyle=orthogonalEdgeStyle;curved=0;rounded=0;fontFamily=Times New Roman;fontSize=9;fontColor=default;" edge="1" parent="1">
          <mxGeometry x="0.857" y="30" relative="1" as="geometry">
            <mxPoint x="657" y="260" as="sourcePoint" />
            <Array as="points">
              <mxPoint x="687" y="260" />
              <mxPoint x="687" y="270" />
              <mxPoint x="662" y="270" />
            </Array>
            <mxPoint x="657" y="270" as="targetPoint" />
            <mxPoint as="offset" />
          </mxGeometry>
        </mxCell>
        <mxCell id="NYK6uS1K47BaD9W_qknn-22" value="success message" style="html=1;verticalAlign=bottom;endArrow=open;dashed=1;endSize=8;curved=0;rounded=0;strokeColor=default;align=center;fontFamily=Times New Roman;fontSize=10;fontColor=default;labelBackgroundColor=none;" edge="1" parent="1" source="NYK6uS1K47BaD9W_qknn-12">
          <mxGeometry relative="1" as="geometry">
            <mxPoint x="645" y="280" as="sourcePoint" />
            <mxPoint x="545" y="280" as="targetPoint" />
          </mxGeometry>
        </mxCell>
        <mxCell id="NYK6uS1K47BaD9W_qknn-23" value="get_recommendations_json()" style="html=1;verticalAlign=bottom;endArrow=block;curved=0;rounded=0;strokeColor=default;align=center;fontFamily=Times New Roman;fontSize=8;fontColor=default;labelBackgroundColor=none;startSize=8;" edge="1" parent="1">
          <mxGeometry width="80" relative="1" as="geometry">
            <mxPoint x="545" y="300" as="sourcePoint" />
            <mxPoint x="647" y="300" as="targetPoint" />
            <mxPoint as="offset" />
          </mxGeometry>
        </mxCell>
        <mxCell id="NYK6uS1K47BaD9W_qknn-24" value="JSON of results" style="html=1;verticalAlign=bottom;endArrow=open;dashed=1;endSize=8;curved=0;rounded=0;strokeColor=default;align=center;fontFamily=Times New Roman;fontSize=10;fontColor=default;labelBackgroundColor=none;" edge="1" parent="1">
          <mxGeometry relative="1" as="geometry">
            <mxPoint x="645" y="330" as="sourcePoint" />
            <mxPoint x="545" y="330" as="targetPoint" />
          </mxGeometry>
        </mxCell>
        <mxCell id="NYK6uS1K47BaD9W_qknn-25" value="JSON of results" style="html=1;verticalAlign=bottom;endArrow=open;dashed=1;endSize=8;curved=0;rounded=0;strokeColor=default;align=center;fontFamily=Times New Roman;fontSize=10;fontColor=default;labelBackgroundColor=none;" edge="1" parent="1">
          <mxGeometry relative="1" as="geometry">
            <mxPoint x="407" y="418" as="sourcePoint" />
            <mxPoint x="287" y="418" as="targetPoint" />
            <mxPoint as="offset" />
          </mxGeometry>
        </mxCell>
        <mxCell id="NYK6uS1K47BaD9W_qknn-26" value="re-renders&lt;div&gt;with JSON result&lt;/div&gt;" style="html=1;align=left;spacingLeft=2;endArrow=block;rounded=0;edgeStyle=orthogonalEdgeStyle;curved=0;rounded=0;fontFamily=Times New Roman;fontSize=9;fontColor=default;" edge="1" parent="1">
          <mxGeometry relative="1" as="geometry">
            <mxPoint x="287" y="428" as="sourcePoint" />
            <Array as="points">
              <mxPoint x="317" y="428" />
              <mxPoint x="317" y="438" />
            </Array>
            <mxPoint x="287" y="438" as="targetPoint" />
            <mxPoint as="offset" />
          </mxGeometry>
        </mxCell>
        <mxCell id="iqN7oKw7uPJiBqiRCgNG-2" value="generate&lt;div&gt;_recommendations&lt;/div&gt;&lt;div&gt;(*profile_data&lt;span style=&quot;background-color: initial;&quot;&gt;)&lt;/span&gt;&lt;/div&gt;" style="html=1;verticalAlign=bottom;endArrow=block;curved=0;rounded=0;strokeColor=default;align=center;fontFamily=Times New Roman;fontSize=10;fontColor=default;labelBackgroundColor=none;startSize=8;" edge="1" parent="1" source="iqN7oKw7uPJiBqiRCgNG-5">
          <mxGeometry width="80" relative="1" as="geometry">
            <mxPoint x="540" y="159.66" as="sourcePoint" />
            <mxPoint x="647" y="160" as="targetPoint" />
            <mxPoint as="offset" />
          </mxGeometry>
        </mxCell>
        <mxCell id="iqN7oKw7uPJiBqiRCgNG-4" value=":UserProfile" style="shape=umlLifeline;perimeter=lifelinePerimeter;whiteSpace=wrap;html=1;container=1;dropTarget=0;collapsible=0;recursiveResize=0;outlineConnect=0;portConstraint=eastwest;newEdgeStyle={&quot;curved&quot;:0,&quot;rounded&quot;:0};fontFamily=Times New Roman;" vertex="1" parent="1">
          <mxGeometry x="490" y="20" width="100" height="450" as="geometry" />
        </mxCell>
        <mxCell id="iqN7oKw7uPJiBqiRCgNG-5" value="" style="html=1;points=[[0,0,0,0,5],[0,1,0,0,-5],[1,0,0,0,5],[1,1,0,0,-5]];perimeter=orthogonalPerimeter;outlineConnect=0;targetShapes=umlLifeline;portConstraint=eastwest;newEdgeStyle={&quot;curved&quot;:0,&quot;rounded&quot;:0};strokeColor=default;align=center;verticalAlign=middle;fontFamily=Times New Roman;fontSize=12;fontColor=default;fillColor=default;" vertex="1" parent="iqN7oKw7uPJiBqiRCgNG-4">
          <mxGeometry x="45" y="120" width="10" height="330" as="geometry" />
        </mxCell>
        <mxCell id="mFeNANymlmoCCgWYMVy5-2" value="" style="html=1;points=[[0,0,0,0,5],[0,1,0,0,-5],[1,0,0,0,5],[1,1,0,0,-5]];perimeter=orthogonalPerimeter;outlineConnect=0;targetShapes=umlLifeline;portConstraint=eastwest;newEdgeStyle={&quot;curved&quot;:0,&quot;rounded&quot;:0};" vertex="1" parent="iqN7oKw7uPJiBqiRCgNG-4">
          <mxGeometry x="49" y="325" width="10" height="40" as="geometry" />
        </mxCell>
        <mxCell id="mFeNANymlmoCCgWYMVy5-3" value="&lt;font style=&quot;font-size: 8px;&quot;&gt;process&lt;/font&gt;&lt;div style=&quot;font-size: 8px;&quot;&gt;&lt;font style=&quot;font-size: 8px;&quot;&gt;_recommendations()&lt;/font&gt;&lt;/div&gt;" style="html=1;align=left;spacingLeft=2;endArrow=block;rounded=0;edgeStyle=orthogonalEdgeStyle;curved=0;rounded=0;fontFamily=Times New Roman;fontSize=8;" edge="1" parent="iqN7oKw7uPJiBqiRCgNG-4">
          <mxGeometry relative="1" as="geometry">
            <mxPoint x="55" y="320" as="sourcePoint" />
            <Array as="points">
              <mxPoint x="85" y="320" />
              <mxPoint x="85" y="331" />
            </Array>
            <mxPoint x="59" y="331" as="targetPoint" />
          </mxGeometry>
        </mxCell>
        <mxCell id="NYK6uS1K47BaD9W_qknn-14" value=":Model&lt;div style=&quot;font-size: 9px;&quot;&gt;KNN&lt;/div&gt;" style="shape=umlLifeline;perimeter=lifelinePerimeter;whiteSpace=wrap;html=1;container=1;dropTarget=0;collapsible=0;recursiveResize=0;outlineConnect=0;portConstraint=eastwest;newEdgeStyle={&quot;curved&quot;:0,&quot;rounded&quot;:0};fontFamily=Times New Roman;fontSize=9;" vertex="1" parent="1">
          <mxGeometry x="690" y="160" width="30" height="90" as="geometry" />
        </mxCell>
        <mxCell id="NYK6uS1K47BaD9W_qknn-15" value="" style="html=1;points=[[0,0,0,0,5],[0,1,0,0,-5],[1,0,0,0,5],[1,1,0,0,-5]];perimeter=orthogonalPerimeter;outlineConnect=0;targetShapes=umlLifeline;portConstraint=eastwest;newEdgeStyle={&quot;curved&quot;:0,&quot;rounded&quot;:0};strokeColor=default;align=center;verticalAlign=middle;fontFamily=Times New Roman;fontSize=12;fontColor=default;fillColor=default;" vertex="1" parent="NYK6uS1K47BaD9W_qknn-14">
          <mxGeometry x="10" y="40" width="10" height="30" as="geometry" />
        </mxCell>
        <mxCell id="NYK6uS1K47BaD9W_qknn-16" value="&amp;lt;&amp;lt;loads&amp;gt;&amp;gt;" style="html=1;verticalAlign=bottom;endArrow=block;curved=0;rounded=0;strokeColor=default;align=center;fontFamily=Times New Roman;fontSize=10;fontColor=default;labelBackgroundColor=none;startSize=8;" edge="1" parent="1">
          <mxGeometry width="80" relative="1" as="geometry">
            <mxPoint x="657" y="179" as="sourcePoint" />
            <mxPoint x="690" y="179" as="targetPoint" />
            <mxPoint as="offset" />
          </mxGeometry>
        </mxCell>
        <mxCell id="NYK6uS1K47BaD9W_qknn-17" value="" style="shape=umlDestroy;whiteSpace=wrap;html=1;strokeWidth=2;targetShapes=umlLifeline;strokeColor=default;align=center;verticalAlign=middle;fontFamily=Times New Roman;fontSize=10;fontColor=default;labelBackgroundColor=default;fillColor=default;" vertex="1" parent="1">
          <mxGeometry x="700" y="245" width="10" height="10" as="geometry" />
        </mxCell>
        <mxCell id="NYK6uS1K47BaD9W_qknn-18" value="prediction_set" style="html=1;verticalAlign=bottom;endArrow=open;dashed=1;endSize=8;curved=0;rounded=0;strokeColor=default;align=center;fontFamily=Times New Roman;fontSize=7;fontColor=default;labelBackgroundColor=default;" edge="1" parent="1">
          <mxGeometry relative="1" as="geometry">
            <mxPoint x="700" y="220" as="sourcePoint" />
            <mxPoint x="656" y="220" as="targetPoint" />
          </mxGeometry>
        </mxCell>
        <mxCell id="QnclAYwHPRLRrpc6T_t--1" value="get_profile(request)" style="html=1;verticalAlign=bottom;endArrow=block;curved=0;rounded=0;strokeColor=default;align=center;fontFamily=Times New Roman;fontSize=10;fontColor=default;labelBackgroundColor=none;startSize=8;" edge="1" parent="1">
          <mxGeometry width="80" relative="1" as="geometry">
            <mxPoint x="418" y="140" as="sourcePoint" />
            <mxPoint x="535" y="140" as="targetPoint" />
            <mxPoint as="offset" />
          </mxGeometry>
        </mxCell>
        <mxCell id="jBJ31GzPm3Lm5700Lovo-2" value="JSON of results" style="html=1;verticalAlign=bottom;endArrow=open;dashed=1;endSize=8;curved=0;rounded=0;strokeColor=default;align=center;fontFamily=Times New Roman;fontSize=10;fontColor=default;labelBackgroundColor=none;" edge="1" parent="1">
          <mxGeometry relative="1" as="geometry">
            <mxPoint x="534" y="400" as="sourcePoint" />
            <mxPoint x="420" y="400" as="targetPoint" />
          </mxGeometry>
        </mxCell>
        <mxCell id="mFeNANymlmoCCgWYMVy5-5" value="consider:&lt;div&gt;- reviewed menu, add score&lt;br&gt;&lt;div&gt;- liked menu, add score&lt;/div&gt;&lt;/div&gt;&lt;div&gt;- disliked menu, sub score&lt;/div&gt;&lt;div&gt;- in dietary restriction, filter.&lt;/div&gt;" style="shape=note;whiteSpace=wrap;html=1;backgroundOutline=1;darkOpacity=0.05;size=12;fontSize=6;fontFamily=Times New Roman;align=left;labelPosition=center;verticalLabelPosition=middle;verticalAlign=top;spacingLeft=3;" vertex="1" parent="1">
          <mxGeometry x="556" y="400" width="80" height="50" as="geometry" />
        </mxCell>
        <mxCell id="mFeNANymlmoCCgWYMVy5-6" style="rounded=0;orthogonalLoop=1;jettySize=auto;html=1;entryX=0.5;entryY=0;entryDx=0;entryDy=0;entryPerimeter=0;dashed=1;endArrow=none;endFill=0;strokeWidth=0.5;exitX=1.1;exitY=0.5;exitDx=0;exitDy=0;exitPerimeter=0;" edge="1" parent="1" source="mFeNANymlmoCCgWYMVy5-2" target="mFeNANymlmoCCgWYMVy5-5">
          <mxGeometry relative="1" as="geometry">
            <mxPoint x="550" y="360" as="sourcePoint" />
          </mxGeometry>
        </mxCell>
      </root>
    </mxGraphModel>
  </diagram>
</mxfile>
